/* XPM */
static char * image_name[]={
"32 32 96 2",
"  	c #FFFFFF",
". 	c #FCFCFC",
"X 	c #F5F5F5",
"o 	c #FFFAFA",
"O 	c #E8E8E8",
"+ 	c #B5B5B5",
"@ 	c #A6A6A6",
"# 	c #F5DEB3",
"$ 	c #E3E3E3",
"% 	c #E0E0E0",
"& 	c #ABABAB",
"* 	c #A1A1A1",
"= 	c #A3A3A3",
"- 	c #A8A8A8",
"; 	c #DEB887",
": 	c #DBDBDB",
"> 	c #FFFAF0",
", 	c #FFF5EE",
"< 	c #CCCCCC",
"1 	c #9C9C9C",
"2 	c #999999",
"3 	c #BC8F8F",
"4 	c #FAF0E6",
"5 	c #ADADAD",
"6 	c #B3B37E",
"7 	c #757575",
"8 	c #9B7071",
"9 	c #6E6E6E",
"0 	c #6B6B6B",
"q 	c #969696",
"w 	c #919191",
"e 	c #EBEBEB",
"r 	c #595959",
"t 	c #4F4F4F",
"y 	c #696969",
"u 	c #525252",
"i 	c #55562F",
"p 	c #666666",
"a 	c #9E9E9E",
"s 	c #B3B3B3",
"d 	c #FAFAFA",
"f 	c #EDEDED",
"g 	c #6B3939",
"h 	c #4D4D4D",
"j 	c #575757",
"k 	c #545454",
"l 	c #636363",
"z 	c #333333",
"x 	c #262626",
"c 	c #242424",
"v 	c #1F1F1F",
"b 	c #2B2B2B",
"n 	c #383838",
"m 	c #303030",
"M 	c #F7F7F7",
"N 	c #212121",
"B 	c #292929",
"V 	c #737373",
"C 	c #5C5C5C",
"Z 	c #474747",
"A 	c #4A4A4A",
"S 	c #D9D9D9",
"D 	c #5E5E5E",
"F 	c #949494",
"G 	c #363636",
"H 	c #C7C7C7",
"J 	c #D4D4D4",
"K 	c #7D7D7D",
"L 	c #454545",
"P 	c #171717",
"I 	c #1A1A1A",
"U 	c #3D3D3D",
"Y 	c #424242",
"T 	c #DEDEDE",
"R 	c #141414",
"E 	c #616161",
"W 	c #C2C2C2",
"Q 	c #1C1C1C",
"! 	c #91535D",
"~ 	c #707070",
"^ 	c #F0F0F0",
"/ 	c #3B3B3B",
"( 	c #8A8A8A",
") 	c #96522D",
"_ 	c #CFCFCF",
"` 	c #FAEBD7",
"' 	c #2E2E2E",
"] 	c #FDF5E6",
"[ 	c #0F0F0F",
"{ 	c #121212",
"} 	c #E5E5E5",
"| 	c #0D0D0D",
" .	c #C9C9C9",
"..	c #0A0A0A",
"X.	c #2F4F4F",
"o.	c #D6D6D6",
"                      . .   . X o o .                           ",
"                      o   O + @ + # $ o   o .                   ",
"              . . . . . % & * = & - ; : > o .                   ",
"            . . > o , < @ 1 * 2 3 & @ 1 # 4 o o .               ",
"            o o o O 5 6 7 8 8 9 0 q q 6 w 5 O   . .             ",
"            . o e = 6 0 r t y u i 8 9 p 8 a s e   d             ",
"      . . . . f = 6 y i i g h i i j k t l 6 a # o   .           ",
"      . d . O a 6 l z x c v b i i n b m g g l w * M .           ",
"      . .   5 l 6 i N B m m m z B m z i i b b V 0 #             ",
"      . . X j r k z z t C k Z A Z i h r 9 l N i 6 @ o           ",
"      d   S g C i v A A i i r t i u h h D V g m 8 F ,   .       ",
"    d     S i B z c i G v N n t A i b B i y g g y 8 3 H   .     ",
"    . J - 6 g v N N i z c b x Z t x N x g r g c i 8 i K X   .   ",
"    O L x z i m P I U g g Z i t C Z i i C r x c g 8 g Y T   .   ",
"    d 0 z g i I P R G i i Z A t k j C j E D v c i 8 E n W   .   ",
"      $ j g g I Q R z i i h t u k D E E E D x g i 8 ! ~ T o .   ",
"        ^ 2 g v Q P z i t i / i i D 8 ! l t Q g ! 6 6 % o o .   ",
"    . M   ( i x v I n i h Z i t i t 9 8 p g I i 8 ! 6 s o > .   ",
"    .   ; i r g c I G u h h k C E D 9 8 l x P i 8 ) ! r _   .   ",
"      e 0 i t h x I g j u t k r C E y y C c B D 8 8 ! i w > .   ",
"      ; i g g h m I z r A Z A u j C p 0 j I g D 8 ! i g k %   . ",
"      2 i g g B h x b j t i i i i i j E g N j ! 8 C i g i ;     ",
"    o ~ i g Q P g A N G k t h A i h k g P g y ! i i i g i 2 o   ",
"o   ` u g B R I P ' i Q x g i i i i c N g r l i g i i g i 6 ]   ",
"o   # g c P P [ Q { B i ' v I Q R R b i D k g P g j g g i 8 T   ",
"o   2 Q v Q P { P Q c Q g g B P m i u t g N N g i i g g g l #   ",
"o d E I Q Q P R R P x c I I N c g z ' c N b g g i g g g g j #   ",
". } n P R R R { [ | N b B I P R P v v N B ' g x g g g g g C #   ",
"   .b R { [ R | | c x Q I v v x b x c x x m x v g g c c g C #   ",
"  # x { [ | | ..N g Q Q Q { Q b z g c v B c R I B x c c g i ;   ",
"  < B { [ | | { i g v P I x g g ' i N ' N { R I I v B g g r #   ",
"  < g c N Q Q g t g n X.L L A j ' i i l B v v c c x b g g 8 o.  "
};
